<svg xmlns="http://www.w3.org/2000/svg" viewBox="0 0 39.54 47.1"><defs><style>.cls-1{fill:#d3edf0;}</style></defs><g id="Layer_2" data-name="Layer 2"><g id="Layer_1-2" data-name="Layer 1"><path class="cls-1" d="M24.2,47.1H15.35c-5.29,0-9.58-3.28-9.58-7.32V12.62h4V39.78c0,1.57,2.29,3.32,5.58,3.32H24.2c3.29,0,5.58-1.75,5.58-3.32V12.62h4V39.78C33.78,43.82,29.48,47.1,24.2,47.1Z"/><path class="cls-1" d="M21.57,40.07H18c-2.8,0-5.07-2.75-5.07-6.12V12.62h4V34c0,1.31.69,2.12,1.07,2.12h3.59c.37,0,1.07-.81,1.07-2.12V12.62h4V34C26.64,37.32,24.36,40.07,21.57,40.07Z"/><path class="cls-1" d="M37.54,10.11H33a5.24,5.24,0,0,1-5.36-5.24c0-.6-.84-.87-1.43-.87H13.33c-.59,0-1.42.27-1.42.87a5.25,5.25,0,0,1-5.37,5.24H2a2,2,0,0,1,0-4H6.54A1.27,1.27,0,0,0,7.91,4.87C7.91,2.14,10.29,0,13.33,0H26.21c3,0,5.43,2.14,5.43,4.87A1.26,1.26,0,0,0,33,6.11h4.54a2,2,0,1,1,0,4Z"/></g></g></svg>